<svg width="50" height="50" viewBox="0 0 50 50" fill="none" xmlns="http://www.w3.org/2000/svg">
<rect width="50" height="50" rx="13" fill="#1C1C1C"/>
<path d="M43 25.333H41.3334V27H39.6664V25.333H38V23.6666H39.6664V22H41.3334V23.6666H43V25.333Z" fill="white"/>
<path d="M37 25.333H35.3334V27H33.6667V25.333H32V23.6666H33.6667V22H35.3334V23.6666H37V25.333Z" fill="white"/>
<path d="M28.7201 28.0402C27.4861 30.2362 25.1413 31.7203 22.4501 31.7203C19.7754 31.7203 17.4438 30.2548 16.2036 28.0821C15.601 27.0263 15.2546 25.8039 15.2546 24.4999C15.2546 20.5123 18.4762 17.2797 22.4501 17.2797C25.1075 17.2797 27.4269 18.7269 28.6733 20.8774L34.9625 17.2433C32.4627 12.9132 27.7956 10 22.4501 10C14.4694 10 8 16.4919 8 24.4999C8 27.1271 8.6965 29.5908 9.9138 31.7159C12.4073 36.0689 17.0877 39 22.4501 39C27.8224 39 32.5101 36.0571 35 31.6913L28.7201 28.0402Z" fill="white"/>
</svg>
