<svg width="50" height="50" viewBox="0 0 50 50" fill="none" xmlns="http://www.w3.org/2000/svg">
<rect width="50" height="50" rx="13" fill="#1C1C1C"/>
<path d="M22.7431 8H30.0504V34.2661C26.3075 34.8214 23.5521 35.0398 20.5707 35.0398C11.6458 35.0325 7 31.9055 7 25.8999C7 20.1135 11.928 16.3581 19.5644 16.3581C20.7494 16.3581 21.6522 16.4313 22.7431 16.6504V8ZM22.9992 21.3839C22.1433 21.1646 21.4381 21.0916 20.5352 21.0916C16.8393 21.0916 14.7045 22.8596 14.7045 25.9581C14.7045 28.9749 16.7454 30.6406 20.4883 30.6406C21.297 30.6406 21.9553 30.6049 22.9992 30.4953V21.3839Z" fill="white"/>
<path d="M42 17.0633V30.2144C42 34.7434 41.5674 36.9213 40.2978 38.7991C39.1128 40.6043 37.5517 41.7427 34.3259 43L27.5453 40.4941C30.771 39.3184 32.3321 38.2796 33.3291 36.6942C34.3728 35.073 34.702 33.1952 34.702 28.2563V17.0634L42 17.0633ZM33.9656 8H41.2729V13.823H33.9656V8Z" fill="white"/>
</svg>
