<svg width="20" height="20" viewBox="0 0 20 20" fill="none" xmlns="http://www.w3.org/2000/svg">
<g clip-path="url(#clip0_1_189)">
<path d="M18.1261 2.5H1.8739C0.838376 2.5 -0.00109863 3.33944 -0.00109863 4.375V15.625C-0.00109863 16.6605 0.838376 17.5 1.8739 17.5H18.1261C19.1616 17.5 20.0011 16.6605 20.0011 15.625V4.375C20.0011 3.33944 19.1616 2.5 18.1261 2.5ZM19.3761 15.3471L13.4639 9.435L19.3761 5.66762V15.3471ZM1.8739 3.125H18.1261C18.8153 3.125 19.3761 3.68572 19.3761 4.375V4.927L10.7712 10.4104C10.3055 10.7071 9.71068 10.6979 9.25565 10.3885L0.623901 4.52172V4.375C0.623901 3.68572 1.18468 3.125 1.8739 3.125ZM0.623901 5.27663L6.61943 9.35159L0.623901 15.3471V5.27663ZM18.1261 16.875H1.8739C1.35909 16.875 0.916433 16.5618 0.72512 16.1163L7.13759 9.70378L8.90471 10.9048C9.24406 11.1356 9.63653 11.2512 10.0296 11.2512C10.4031 11.2512 10.7772 11.1468 11.1066 10.9372L12.9323 9.77375L19.2748 16.1163C19.0835 16.5618 18.6409 16.875 18.1261 16.875Z" fill="white"/>
</g>
<defs>
<clipPath id="clip0_1_189">
<rect width="20" height="20" fill="white"/>
</clipPath>
</defs>
</svg>
