<svg width="50" height="50" viewBox="0 0 50 50" fill="none" xmlns="http://www.w3.org/2000/svg">
<rect width="50" height="50" rx="13" fill="#1C1C1C"/>
<path d="M18.4591 34.7043C14.7894 32.5539 11.6553 27.3625 10.0354 22.809C9.38476 20.8336 9.16193 18.7158 8.32316 16.8168C7.44572 15.4376 8.47352 13.9298 9.98432 13.4914C10.657 13.3623 11.8397 12.7279 10.412 13.1813C9.13208 14.1204 9.00821 12.3289 10.3207 12.2155C11.2164 12.0964 11.5461 11.3632 11.2398 10.7031C10.2783 10.0761 13.5713 9.38702 11.9144 8.45145C10.1884 6.58926 14.3287 6.23079 13.3072 8.34566C13.0627 9.97191 16.2003 8.0476 15.4723 9.92556C16.2123 10.8274 18.2432 10.1308 18.1928 11.3961C19.2707 11.4702 19.6406 12.3771 20.6525 12.4467C21.7012 12.9203 23.6023 13.2935 23.9591 14.4752C22.9187 15.2989 20.5095 12.7738 20.3937 15.0539C20.8328 23.0966 21.2487 25.8696 25.1324 30.083C27.7484 33.0429 31.343 34.4388 34.3776 34.9357C35.0313 34.4357 36.1853 32.5769 37.205 33.3608C37.2534 34.2414 35.1811 35.2018 37.1075 35.1044C38.2387 34.7632 39.0233 35.9793 39.9548 34.8824C40.813 35.8989 43.5219 34.2329 42.9112 36.3107C42.0855 36.8434 40.8813 36.5215 40.0542 37.2544C38.6906 36.5733 37.605 37.8638 36.0954 37.7006C30.2757 38.7192 22.6919 37.8004 18.4591 34.7043ZM25.2992 37.2214C27.8363 37.5742 30.4563 38.117 33.0025 37.6219C31.8501 37.1016 30.6587 37.8246 29.5107 37.2498C28.1338 37.5461 26.6562 37.1743 25.2564 36.9913C23.6646 36.2823 21.9468 35.7947 20.4561 34.8744C18.5935 34.194 21.4194 35.7468 21.9225 35.8726C23.0868 36.5335 20.642 35.5338 20.2973 35.2591C19.3221 34.712 19.1731 34.8395 20.1761 35.3951C21.74 36.3639 23.7 37.0208 25.2992 37.2214ZM18.0375 33.7625C19.4515 34.2862 18.0312 32.7681 17.3833 32.8563C17.0962 32.3583 16.2865 32.0437 16.8577 31.7761C15.8302 32.1328 15.7814 30.4197 15.2984 30.6645C14.2115 30.3213 14.8754 29.1054 13.5807 28.3588C13.4625 27.5721 12.2943 26.8897 11.9217 25.703C11.7571 25.0954 10.6019 23.3506 11.3116 24.9744C11.9158 26.5376 12.9789 27.8762 13.8636 29.2133C14.5506 30.4864 15.3618 31.817 16.6129 32.6112C17.0347 33.0157 17.4419 33.6356 18.0375 33.7625ZM19.8584 31.2985C19.0848 30.8861 17.4006 30.6728 18.5891 31.6161C19.352 31.9245 21.2965 32.074 19.8584 31.2985ZM21.1552 32.9381C22.8168 33.4081 19.7579 31.8873 20.7452 32.7652L21.1552 32.9381ZM21.1693 32.0576C22.3764 32.2133 19.733 31.2366 20.9044 31.9703L21.1693 32.0576ZM25.3645 34.6372C26.4914 33.9634 26.1199 36.2149 27.2764 34.8274C28.4173 33.9944 26.2912 35.8572 27.6973 34.9759C28.7141 34.2958 30.216 35.2983 31.1648 35.6254C31.8471 35.5918 32.5104 36.2154 33.2099 35.836C34.5564 35.4734 30.5768 35.2981 31.62 34.6546C30.3879 35.0132 29.4776 34.2272 28.8714 33.438C27.4893 33.1188 25.8914 32.4123 25.2017 31.1893C24.9205 30.73 25.608 31.2539 24.9589 30.5033C24.1262 29.7626 23.7103 28.9218 23.1513 28.0214C22.4835 27.6652 22.4056 26.6165 22.3381 27.9863C22.3434 27.1218 21.5318 26.5399 21.3337 26.7818C21.3301 25.9492 22.2023 26.3666 21.5918 25.7506C21.4604 24.8876 21.0277 23.9884 20.8976 23.0142C20.6956 22.5445 20.8692 21.5387 20.208 22.6018C19.9671 23.7254 20.128 21.2211 20.5026 22.0469C20.9943 21.2042 20.3261 21.3033 20.2987 21.4203C20.619 20.7093 20.5015 19.7008 20.2152 20.0855C20.3858 19.332 20.4848 17.3121 19.9597 17.6701C20.278 16.882 20.5633 14.0642 19.1817 15.1386C18.6217 15.1464 17.652 15.3418 17.1936 15.5698C18.6308 16.362 17.0491 15.8559 16.464 15.73C16.3878 16.463 15.8083 16.146 15.0844 16.1532C16.2407 16.2962 14.5213 17.3358 13.858 16.9319C12.9965 17.3437 14.6015 18.3714 13.8753 18.6892C13.9645 19.1683 12.5555 18.5162 12.6662 19.6226C11.8298 19.2707 12.551 20.935 12.9694 20.3721C14.3919 20.7571 13.9708 21.6348 14.007 22.4685C13.7752 22.9543 12.8628 21.3266 13.8038 21.402C13.0614 20.196 12.9826 20.9661 12.3657 21.5263C12.2221 21.567 13.9392 22.3235 12.8617 22.6975C13.8097 22.8438 13.8367 23.6734 14.0297 24.1984C14.5995 24.7919 14.4829 23.543 15.1647 24.2563C14.7332 23.6209 12.8794 22.4659 14.372 22.8363C14.364 22.1968 14.102 21.6811 14.5593 21.6936C15.0122 20.8735 14.085 23.7157 15.1058 22.6734C15.3884 22.55 15.4584 21.8522 15.9663 22.7393C16.704 23.465 16.2327 23.9909 15.1921 23.3264C15.3783 23.958 16.5842 24.1837 16.3576 25.1713C16.5978 26.04 16.9339 25.72 17.2269 25.6698C17.4567 26.5138 17.5872 25.8932 17.5981 25.4916C18.6504 25.7168 18.404 26.3389 18.7332 26.7735C19.4583 27.1008 17.6953 24.5549 18.9402 26.0079C20.25 27.1905 19.4385 27.5981 18.256 27.4946C19.2396 27.5751 19.2603 28.4513 20.1704 28.4629C20.9615 28.8709 21.585 30.4012 20.1223 29.7558C19.2975 29.2441 17.8283 28.75 19.2946 29.62C19.6417 29.8397 21.7245 30.6223 23.0306 31.4095C23.7537 31.9039 24.3692 32.8412 24.7235 32.9925C23.9379 33.3677 22.3559 32.6928 23.5306 32.486C22.7979 32.3525 21.9993 31.9767 22.6756 32.8949C23.2572 33.4266 24.7898 33.3404 25.0619 33.3968C24.8313 33.9049 24.4355 33.9453 25.0713 33.9847C24.362 34.3627 25.2987 34.4212 25.3645 34.6372ZM23.8375 29.9803C23.371 29.2448 23.4826 30.0901 23.9141 30.5414C24.6038 31.3616 24.0767 30.0764 23.8375 29.9803ZM21.2623 26.1756C21.2623 26.1756 21.3773 25.3997 21.0225 25.3139C20.6678 25.2281 20.8632 25.3709 21.1471 25.9851C21.2148 26.1316 21.2566 26.1824 21.256 26.179M17.3792 23.2347C17.0268 22.4455 17.5469 22.874 17.4712 22.5374C17.3085 22.1991 15.7275 20.4022 16.4477 21.7587C17.0994 23.377 16.0376 21.5556 15.9269 21.0042C15.8044 21.3428 16.1847 22.4518 16.4146 22.8297C16.9999 23.731 16.7366 22.3361 17.3792 23.2347ZM14.1416 20.1227C13.2265 19.353 14.4237 20.5021 14.0521 20.4876C13.0877 19.7833 13.4819 20.2823 14.0266 20.8235C14.6167 21.7004 15.1038 20.2981 14.1416 20.1227ZM14.6114 20.255C16.3424 20.7306 12.7692 18.5846 14.3527 19.9938L14.6114 20.255ZM19.4017 22.301C18.9049 22.3111 19.6078 21.2191 18.9416 21.4346C18.708 19.7374 18.2043 22.2189 18.8896 22.6298C19.1011 23.2377 19.3234 22.99 19.4017 22.301ZM15.3148 19.8867C17.6198 20.9504 13.646 18.1272 14.6633 19.5307C14.7842 19.8012 15.074 19.8237 15.3148 19.8867ZM15.579 19.3353C17.3247 20.0569 15.4237 18.8657 14.8191 18.995C14.9715 19.2181 15.385 19.1206 15.579 19.3353ZM15.8127 18.6821C16.3794 18.5689 15.7376 18.3872 15.399 18.1181C14.6152 16.9408 15.5155 18.2132 15.2692 18.5745C15.5954 18.8951 16.704 19.4683 15.8127 18.6821ZM19.8219 16.8555C19.5904 18.0785 19.3544 17.5684 19.6861 16.6565C19.6068 15.4863 18.8956 17.3732 19.2099 17.9271C19.7296 18.7549 20.2492 15.8929 19.8219 16.8555ZM20.5129 31.4171C21.413 31.6481 21.4084 31.2771 20.5949 31.1669C20.1573 30.7598 18.7767 30.3281 20.0124 31.1164C20.0943 31.3237 20.3529 31.3188 20.5129 31.4171ZM17.3171 29.2945C17.813 29.6643 19.1849 30.3425 18.0235 29.4353C18.4151 28.9803 17.2741 28.7382 17.6526 28.4339C16.6898 27.8448 16.8931 27.8972 17.5676 27.9157C16.4106 27.3985 17.7346 27.4372 17.6723 27.1722C17.2261 27.0841 15.4563 26.3855 16.4975 27.2296C15.439 26.6899 16.2452 27.4306 15.9253 27.3523C14.843 27.0572 16.8892 28.1767 15.7534 27.8988C16.3744 28.3908 17.4248 29.1592 16.0159 28.4195C15.8303 28.6867 17.0241 29.0917 17.3171 29.2945ZM28.5633 35.8898C29.038 35.4297 28.5827 36.6226 29.3499 35.7772C29.3582 35.172 29.3263 34.8145 28.4682 35.5497C28.2317 35.6808 28.1261 36.2386 28.5633 35.8898ZM20.7887 30.8982C21.3168 31.3673 23.2143 31.2424 21.4302 30.956C21.1659 30.5653 19.7523 30.6593 20.7887 30.8982ZM12.0901 25.0552C11.323 23.9606 11.6132 23.4686 10.8734 22.5749C10.7334 21.8914 9.6043 20.3405 10.2895 21.9836C10.917 22.9445 11.1035 24.4323 12.0901 25.0552ZM34.8198 35.8582C35.5662 35.7068 37.267 36.2381 37.5419 35.6603C36.6355 35.6383 34.406 35.0208 34.3006 35.8076L34.8198 35.8582ZM9.40377 16.9974C9.26774 16.2176 9.10324 14.8488 10.4044 15.3114C8.66757 15.6562 11.6065 17.4701 11.2353 16.038C11.9656 16.0737 12.664 15.6063 12.2807 16.3156C13.7196 16.1567 14.7172 14.909 16.107 15.0838C17.1897 14.9405 18.3734 14.8319 19.5401 14.3961C20.4993 14.327 21.4227 13.2942 20.8969 12.6821C19.5888 12.5714 18.2195 12.735 16.7736 13.0224C15.1715 13.3555 13.7162 13.9883 12.0996 14.2599C10.5239 14.4716 12.4165 14.8431 11.9652 14.9259C11.143 15.2112 12.9458 15.4036 11.8586 15.7043C11.1872 15.5766 10.4884 15.346 10.7751 14.6384C9.26578 14.8343 7.93948 15.4607 9.13197 16.9967L9.40377 16.9974ZM13.4377 15.3182C14.7537 16.2179 13.2116 13.8414 12.8577 15.1451C13.0221 15.1047 13.2806 15.2006 13.4377 15.3182ZM13.8123 14.7154C15.0598 14.8409 13.6212 13.9234 13.5751 14.4995L13.8123 14.7154ZM15.9029 13.9514C17.7442 13.6009 15.2287 13.3664 14.6892 14.0146C15.0311 14.1705 15.4094 13.5799 15.9029 13.9514ZM19.0612 13.3242C20.2252 13.1454 19.2441 12.6111 18.9036 13.5035C19.0271 13.7848 19.0865 13.4191 19.0612 13.3242ZM12.7998 18.0793C13.4577 18.0341 13.8291 17.3536 12.6725 17.3927C10.88 17.2072 14.254 18.0065 12.4426 17.7779C12.1992 17.9391 12.7856 18.1239 12.7998 18.0793ZM11.8785 12.8825C13.0527 12.4831 14.5349 12.1438 15.1958 13.1071C14.6987 12.4058 14.985 11.7316 15.5179 12.7245C16.2715 13.729 16.5418 12.4664 16.1586 11.9306C16.5232 12.5073 17.877 13.7632 16.5325 11.9745C17.4234 10.9028 14.7487 12.1148 14.1408 12.1026C13.8483 12.2339 11.1209 12.7981 11.8785 12.8825ZM12.5666 11.5646C13.2363 11.0592 14.8826 11.8653 13.8261 11.0623C13.7229 10.9711 11.5126 11.6712 12.5666 11.5646ZM15.0079 11.6654C15.7916 11.6854 14.6699 10.6126 15.6037 11.0987C15.4504 10.5977 14.5164 10.5039 14.0598 10.3037C13.8016 10.7618 14.5855 11.6716 15.0079 11.6654ZM12.1294 8.23037C11.2402 7.06951 13.8018 8.4255 12.8983 7.21005C12.1379 6.60451 11.4071 7.89148 12.1294 8.23037ZM23.5417 14.3773C23.9495 13.6543 21.8578 13.4027 23.2669 14.1211C23.3966 14.1644 23.3672 14.4273 23.5417 14.3773Z" fill="white"/>
</svg>
