<svg width="50" height="50" viewBox="0 0 50 50" fill="none" xmlns="http://www.w3.org/2000/svg">
<rect width="50" height="50" rx="13" fill="#1C1C1C"/>
<path d="M42.3438 23.1397L27.0625 9.7686C26.6393 9.39959 26.0662 9.19238 25.4688 9.19238C24.8713 9.19238 24.2982 9.39959 23.875 9.7686L20.6953 12.544L24.7188 16.0645C26.8359 15.4424 28.8359 17.2129 28.1094 19.0518L31.9922 22.4493C34.6641 21.6426 36.7734 24.5684 34.7656 26.3252C32.6953 28.1368 29.2812 26.127 30.3906 23.7754L26.7656 20.6036V28.9366C28.7422 29.7911 28.5078 31.8008 27.4766 32.6963C27.2276 32.915 26.9317 33.0885 26.606 33.2069C26.2802 33.3253 25.9309 33.3863 25.5781 33.3863C25.2254 33.3863 24.8761 33.3253 24.5503 33.2069C24.2245 33.0885 23.9287 32.915 23.6797 32.6963C22.3047 31.4932 22.8125 29.4903 24.5625 28.8682V20.46C22.9375 19.879 22.6406 18.3614 23.1094 17.3838L19.1406 13.9043L8.66406 23.0713C8.24233 23.4416 8.00552 23.9431 8.00552 24.4659C8.00552 24.9886 8.24233 25.4901 8.66406 25.8604L23.9453 39.2315C24.3685 39.6005 24.9416 39.8077 25.5391 39.8077C26.1365 39.8077 26.7096 39.6005 27.1328 39.2315L42.3438 25.9219C42.7655 25.5516 43.0023 25.0502 43.0023 24.5274C43.0023 24.0046 42.7655 23.5032 42.3438 23.1329V23.1397Z" fill="white"/>
</svg>
