<svg width="50" height="50" viewBox="0 0 50 50" fill="none" xmlns="http://www.w3.org/2000/svg">
<rect width="50" height="50" rx="13" fill="#1C1C1C"/>
<path d="M19.2273 34.166C19.2273 34.3027 19.0656 34.4121 18.8617 34.4121C18.6297 34.4326 18.468 34.3232 18.468 34.166C18.468 34.0293 18.6297 33.9199 18.8336 33.9199C19.0445 33.8994 19.2273 34.0088 19.2273 34.166ZM17.0406 33.8584C16.9914 33.9951 17.132 34.1523 17.343 34.1934C17.5258 34.2617 17.7367 34.1934 17.7789 34.0566C17.8211 33.9199 17.6875 33.7627 17.4766 33.7012C17.2937 33.6533 17.0898 33.7217 17.0406 33.8584ZM20.1484 33.7422C19.9445 33.79 19.8039 33.9199 19.825 34.0771C19.8461 34.2139 20.0289 34.3027 20.2398 34.2549C20.4438 34.207 20.5844 34.0771 20.5633 33.9404C20.5422 33.8105 20.3523 33.7217 20.1484 33.7422ZM24.775 7.54688C15.0227 7.54688 7.5625 14.7451 7.5625 24.2266C7.5625 31.8076 12.4703 38.2949 19.4805 40.5781C20.3805 40.7354 20.6969 40.1953 20.6969 39.751C20.6969 39.3271 20.6758 36.9893 20.6758 35.5537C20.6758 35.5537 15.7539 36.5791 14.7203 33.5166C14.7203 33.5166 13.9187 31.5273 12.7656 31.0146C12.7656 31.0146 11.1555 29.9414 12.8781 29.9619C12.8781 29.9619 14.6289 30.0986 15.5922 31.7256C17.132 34.3643 19.7125 33.6055 20.718 33.1543C20.8797 32.0605 21.3367 31.3018 21.843 30.8506C17.9125 30.4268 13.9469 29.873 13.9469 23.2969C13.9469 21.417 14.4813 20.4736 15.6062 19.2705C15.4234 18.8262 14.8258 16.9941 15.7891 14.6289C17.2586 14.1846 20.6406 16.4746 20.6406 16.4746C22.0469 16.0918 23.5586 15.8936 25.0562 15.8936C26.5539 15.8936 28.0656 16.0918 29.4719 16.4746C29.4719 16.4746 32.8539 14.1777 34.3234 14.6289C35.2867 17.001 34.6891 18.8262 34.5063 19.2705C35.6313 20.4805 36.3203 21.4238 36.3203 23.2969C36.3203 29.8936 32.1789 30.4199 28.2484 30.8506C28.8953 31.3906 29.4438 32.416 29.4438 34.0225C29.4438 36.3262 29.4227 39.1768 29.4227 39.7373C29.4227 40.1816 29.7461 40.7217 30.6391 40.5645C37.6703 38.2949 42.4375 31.8076 42.4375 24.2266C42.4375 14.7451 34.5273 7.54688 24.775 7.54688ZM14.3969 31.124C14.3055 31.1924 14.3266 31.3496 14.4461 31.4795C14.5586 31.5889 14.7203 31.6367 14.8117 31.5479C14.9031 31.4795 14.882 31.3223 14.7625 31.1924C14.65 31.083 14.4883 31.0352 14.3969 31.124ZM13.6375 30.5703C13.5883 30.6592 13.6586 30.7686 13.7992 30.8369C13.9117 30.9053 14.0523 30.8848 14.1016 30.7891C14.1508 30.7002 14.0805 30.5908 13.9398 30.5225C13.7992 30.4814 13.6867 30.502 13.6375 30.5703ZM15.9156 33.0039C15.8031 33.0928 15.8453 33.2979 16.007 33.4277C16.1687 33.585 16.3727 33.6055 16.4641 33.4961C16.5555 33.4072 16.5133 33.2021 16.3727 33.0723C16.218 32.915 16.007 32.8945 15.9156 33.0039ZM15.1141 31.999C15.0016 32.0674 15.0016 32.2451 15.1141 32.4023C15.2266 32.5596 15.4164 32.6279 15.5078 32.5596C15.6203 32.4707 15.6203 32.293 15.5078 32.1357C15.4094 31.9785 15.2266 31.9102 15.1141 31.999Z" fill="white"/>
</svg>
