<svg width="10" height="23" viewBox="0 0 10 23" fill="none" xmlns="http://www.w3.org/2000/svg">
<path fill-rule="evenodd" clip-rule="evenodd" d="M2 4.42308C2 2.95739 3.34314 1.76923 5 1.76923C6.65686 1.76923 8 2.95739 8 4.42308C8 5.88876 6.65686 7.07692 5 7.07692C3.34314 7.07692 2 5.88876 2 4.42308ZM6 8.75767C8.28224 8.34787 10 6.56293 10 4.42308C10 1.98028 7.76142 0 5 0C2.23858 0 0 1.98028 0 4.42308C0 6.56293 1.71776 8.34787 4 8.75767V22.1154C4 22.6039 4.44772 23 5 23C5.55228 23 6 22.6039 6 22.1154V8.75767Z" fill="#9CA3AF"/>
</svg>
