<svg width="24" height="15" viewBox="0 0 24 15" fill="none" xmlns="http://www.w3.org/2000/svg">
<rect width="22" height="1" rx="0.5" transform="matrix(-1 0 0 1 23 1)" fill="#171717"/>
<rect x="0.5" y="-0.5" width="23" height="2" rx="1" transform="matrix(-1 0 0 1 24 1)" stroke="white" stroke-opacity="0.1"/>
<rect width="18" height="1" rx="0.5" transform="matrix(-1 0 0 1 23 7)" fill="#171717"/>
<rect x="0.5" y="-0.5" width="19" height="2" rx="1" transform="matrix(-1 0 0 1 24 7)" stroke="white" stroke-opacity="0.1"/>
<rect width="14" height="1" rx="0.5" transform="matrix(-1 0 0 1 23 13)" fill="#171717"/>
<rect x="0.5" y="-0.5" width="15" height="2" rx="1" transform="matrix(-1 0 0 1 24 13)" stroke="white" stroke-opacity="0.1"/>
</svg>
