<svg width="50" height="50" viewBox="0 0 50 50" fill="none" xmlns="http://www.w3.org/2000/svg">
<rect width="50" height="50" rx="13" fill="#1C1C1C"/>
<path d="M33.5726 19.8597C33.5617 20.0293 33.4829 20.1791 33.3637 20.283L33.3626 20.2841C33.2194 20.4405 33.0279 20.5499 32.8114 20.5882L32.8059 20.5893C32.7753 20.5936 32.7392 20.5969 32.7031 20.5969C32.702 20.5969 32.6998 20.5969 32.6987 20.5969C32.3575 20.5969 32.0644 20.3902 31.9397 20.0938L31.9375 20.0883C31.9047 19.8466 32.2984 19.664 32.7042 19.6071C33.11 19.5502 33.5398 19.6191 33.5726 19.8597ZM22.7336 20.4219C22.6012 20.7621 22.2764 20.9994 21.8958 20.9994C21.8914 20.9994 21.8881 20.9994 21.8837 20.9994H21.8848C21.8454 20.9994 21.8083 20.9961 21.77 20.9918H21.7744C21.4889 20.9404 21.2461 20.7829 21.0853 20.563L21.0831 20.5597C20.9934 20.4569 20.9387 20.3202 20.9387 20.1725V20.1715C20.9519 20.0872 20.9989 20.015 21.0645 19.9691L21.0656 19.968C21.2319 19.8761 21.4309 19.8225 21.6431 19.8225C21.7339 19.8225 21.8225 19.8324 21.9078 19.851L21.9001 19.8499C22.3322 19.91 22.7784 20.1146 22.7358 20.4219H22.7336ZM34.7845 28.7815L34.6675 28.6349L34.6194 28.5747C35.1192 27.6494 35.4123 26.548 35.4123 25.3799C35.4123 24.8461 35.3511 24.3277 35.2351 23.829L35.2439 23.8749C35.1673 23.3794 35.1225 22.8074 35.1225 22.2255C35.1225 22.2179 35.1225 22.2102 35.1225 22.2025C35.1476 21.6546 35.2056 21.1427 35.2953 20.6407L35.2844 20.7129C35.3817 20.2054 35.4375 19.6213 35.4375 19.0241C35.4375 18.9683 35.4375 18.9136 35.4364 18.859V18.8677C35.4495 18.8141 35.4572 18.754 35.4572 18.6905C35.4572 18.661 35.455 18.6325 35.4528 18.6041V18.6074C35.0153 16.8793 34.1939 15.3819 33.0815 14.1525L33.0892 14.1613C32.0928 12.9932 30.8678 12.0515 29.4798 11.4018L29.4142 11.3744C30.1754 11.2115 31.0504 11.1185 31.9473 11.1185C32.0294 11.1185 32.1114 11.1196 32.1934 11.1207H32.1814C32.2306 11.1196 32.2875 11.1185 32.3454 11.1185C34.9464 11.1185 37.2629 12.3315 38.7614 14.2225L38.7745 14.24C38.8051 14.2794 38.8358 14.3243 38.862 14.3713L38.8653 14.3768C39.854 16.2296 38.4879 22.954 34.7834 28.7836L34.7845 28.7815ZM34.4717 19.1958C34.4542 19.6935 34.4017 20.1649 34.3186 20.6254L34.3273 20.5652C34.242 21.03 34.1808 21.5835 34.1556 22.1457L34.1545 22.173C34.1545 22.1916 34.1545 22.2124 34.1545 22.2343C34.1545 22.8544 34.2004 23.4636 34.2901 24.0586L34.2814 23.9919C34.3744 24.4043 34.4279 24.8768 34.4279 25.3635C34.4279 26.198 34.2704 26.9965 33.9828 27.7282L33.9981 27.6844C33.915 27.5411 33.8286 27.3683 33.7531 27.189L33.7411 27.1572C33.6689 26.9833 33.5125 26.7022 33.297 26.315C32.4559 24.8057 30.485 21.2718 31.4934 19.8302C32.0119 19.0886 33.3265 19.0569 34.4706 19.1969L34.4717 19.1958ZM33.694 31.8669C33.6383 30.7305 34.0615 30.6113 34.51 30.4855C34.572 30.4687 34.6336 30.4502 34.6948 30.4297C34.7495 30.4779 34.8097 30.5249 34.872 30.5665L34.8775 30.5697C35.5556 30.8683 36.3453 31.0411 37.1765 31.0411C37.824 31.0411 38.4464 30.9361 39.0283 30.7415L38.9867 30.7535C38.6104 31.074 38.1817 31.3485 37.7179 31.5607L37.684 31.5749C36.9797 31.8636 36.1626 32.0441 35.3073 32.0715H35.2964C35.1662 32.0911 35.0164 32.1032 34.8644 32.1032C34.4422 32.1032 34.0397 32.0157 33.6754 31.8582L33.6951 31.8658L33.694 31.8669ZM32.4767 34.0829C32.4537 34.3246 32.4275 34.5969 32.3925 34.8977L32.1934 35.4971C32.1781 35.5408 32.1693 35.5911 32.1683 35.6436C32.1693 35.6732 32.1693 35.7071 32.1693 35.741C32.1693 36.1293 32.1114 36.5055 32.0042 36.8588L32.0108 36.8315C31.8839 37.2569 31.7964 37.7502 31.7668 38.2588L31.7658 38.2763C31.7089 40.1182 30.2837 41.609 28.4758 41.7697L28.4615 41.7708C26.39 42.2149 26.0225 41.0916 25.6987 40.1007C25.6659 39.9971 25.6309 39.894 25.5937 39.7911C25.4187 39.078 25.3181 38.2588 25.3181 37.4166C25.3181 37.0229 25.34 36.6346 25.3826 36.2518L25.3783 36.2988C25.3848 36.1588 25.3881 35.9936 25.3881 35.8285C25.3881 34.7063 25.2197 33.6235 24.9058 32.6041L24.9265 32.6818C24.9324 32.2807 24.9411 31.8746 24.9528 31.4633C24.9528 31.46 24.9528 31.4546 24.9528 31.4502C24.9528 31.3999 24.9451 31.3518 24.9309 31.3058L24.932 31.3091C24.9167 31.1997 24.8959 31.1035 24.8686 31.0105L24.8719 31.0247C24.7176 30.4549 24.3294 29.9955 23.8175 29.7516L23.8054 29.7461C23.6129 29.6499 23.3854 29.593 23.1437 29.593C23.03 29.593 22.9195 29.605 22.8134 29.6291L22.8233 29.6269C22.9633 29.1129 23.1076 28.6929 23.2739 28.2838L23.2454 28.3636L23.3176 28.17C23.3986 27.9513 23.5003 27.7249 23.6086 27.4854C24.2058 26.256 24.5547 24.8111 24.5547 23.2843C24.5547 22.2583 24.3972 21.2696 24.1051 20.3399L24.1237 20.4088C23.9236 19.1969 22.8823 18.2836 21.6289 18.2836C21.432 18.2836 21.2395 18.3066 21.0558 18.3493L21.0733 18.346C20.2026 18.4597 19.4151 18.7157 18.6987 19.0919L18.737 19.0733C18.6466 19.1193 18.5573 19.1667 18.469 19.2155C18.5686 16.8672 19.449 14.7421 20.8545 13.0741L20.8414 13.0894C20.9704 12.9593 21.1061 12.8357 21.2461 12.7197L21.2559 12.7121C21.3314 12.6968 21.3981 12.6661 21.455 12.6235L21.4539 12.6246C22.4306 11.9093 23.6567 11.4794 24.9834 11.4794C25.0895 11.4794 25.1945 11.4816 25.2984 11.4871L25.2842 11.486C25.8595 11.4947 26.4151 11.5341 26.962 11.6041L26.8887 11.5965C29.1233 12.0263 31.0308 13.1966 32.3925 14.8372L32.4045 14.8525C33.2226 15.803 33.8854 16.9165 34.3361 18.1316L34.3601 18.2071C34.079 18.1316 33.7564 18.0879 33.4239 18.0879C32.3487 18.0879 31.3808 18.5429 30.7004 19.2702L30.6983 19.2724C29.342 21.2116 31.4409 24.9763 32.4494 26.7854C32.6342 27.1168 32.7939 27.4033 32.8442 27.5247C33.1286 28.1821 33.4862 28.7475 33.9161 29.2496L33.9084 29.2408C34.0036 29.36 34.0954 29.4749 34.1665 29.5755C33.6186 29.733 32.6342 30.0983 32.7239 31.9227C32.7075 32.136 32.6659 32.533 32.6101 33.0361C32.5511 33.3304 32.5029 33.6891 32.4756 34.0533L32.4734 34.084L32.4767 34.0829ZM22.412 27.8332L22.3398 28.0257C22.19 28.3844 22.0347 28.8405 21.9056 29.3075L21.8848 29.3961C20.9081 29.3819 20.0309 28.9641 19.4118 28.3013L19.4097 28.2991C18.7184 27.5696 18.294 26.5819 18.294 25.4947C18.294 25.2782 18.3104 25.066 18.3433 24.8582L18.34 24.8811C18.4461 24.0936 18.5073 23.1847 18.5073 22.2605C18.5073 21.7115 18.4854 21.1679 18.4439 20.6297L18.4483 20.7008C18.4417 20.5838 18.4351 20.481 18.4319 20.4C19.3123 19.7318 20.4269 19.3282 21.6354 19.3282C21.7798 19.3282 21.922 19.3336 22.0631 19.3446L22.0445 19.3435C22.6504 19.4846 23.1065 19.9866 23.1787 20.6046L23.1798 20.6111C23.4401 21.4074 23.59 22.324 23.59 23.2744C23.59 24.6591 23.2717 25.9694 22.7051 27.1375L22.7281 27.085C22.6133 27.3399 22.505 27.5805 22.412 27.831V27.8332ZM19.5497 33.2844C19.3254 33.2275 19.1286 33.1444 18.9492 33.0361L18.959 33.0416C19.1472 32.9618 19.3692 32.895 19.5989 32.8524L19.6197 32.8491C21.374 32.4882 21.6442 32.2333 22.2359 31.4819C22.3715 31.3102 22.5247 31.1144 22.7379 30.8771C22.7817 30.8279 22.8167 30.7688 22.8375 30.7032L22.8386 30.6999C23.0715 30.4932 23.2104 30.55 23.4358 30.643C23.684 30.7797 23.8678 31.0105 23.9389 31.285L23.94 31.2927C23.9651 31.3638 23.9804 31.4447 23.9804 31.53C23.9804 31.6668 23.9422 31.7947 23.8765 31.903L23.8787 31.8997C23.1733 32.8644 22.0456 33.4846 20.7736 33.4846C20.3361 33.4846 19.915 33.4113 19.5223 33.2757L19.5497 33.2844ZM11.3389 26.3315C10.6269 24.1604 10.0472 21.5846 9.70482 18.9333L9.68185 18.7157C9.61513 18.3635 9.57794 17.9577 9.57794 17.5443C9.57794 15.569 10.4409 13.796 11.8103 12.5819L11.8169 12.5765C14.327 10.8013 18.4319 11.8371 20.1654 12.3982L20.1523 12.4113C18.4734 14.4588 17.4551 17.1057 17.4551 19.9888C17.4551 20.0872 17.4562 20.1857 17.4584 20.2841V20.2699C17.4584 20.3825 17.4672 20.5422 17.4803 20.761C17.5164 21.2094 17.5372 21.7322 17.5372 22.2605C17.5372 23.1377 17.4803 24.0018 17.3687 24.8494L17.3797 24.7499C17.3436 24.9752 17.3239 25.2355 17.3239 25.5002C17.3239 26.8466 17.8511 28.0705 18.7119 28.975L18.7097 28.9729C18.8198 29.0881 18.9346 29.1964 19.0542 29.2977C18.5806 29.8052 17.5503 30.9274 16.4544 32.2465C15.6789 33.1794 15.1429 33 14.9669 32.9421C14.2176 32.5396 13.6303 31.915 13.2847 31.1582L13.2748 31.1341C12.5267 29.7647 11.8683 28.1722 11.3826 26.5054L11.34 26.3336L11.3389 26.3315ZM40.2992 30.2219C40.2784 30.1596 40.2522 30.106 40.2204 30.0568L40.2226 30.06C40.0323 29.7002 39.5708 29.593 38.8456 29.7429C36.5859 30.2088 35.7109 29.9222 35.3937 29.7166C37.1623 27.0347 38.5853 23.9285 39.4964 20.61L39.55 20.3815C39.9208 18.9454 40.6404 15.5657 39.7173 13.9141C39.6528 13.7916 39.5839 13.6866 39.5073 13.5882L39.5106 13.5925C37.8011 11.4543 35.1925 10.0969 32.2667 10.0969C32.1836 10.0969 32.1004 10.098 32.0184 10.1002H32.0304C31.9845 10.0991 31.9309 10.0991 31.8762 10.0991C30.4084 10.0991 28.9964 10.3397 27.6784 10.7827L27.7714 10.7554C27.5373 10.7116 27.3022 10.6744 27.0659 10.6438C26.5322 10.5421 25.9142 10.4786 25.282 10.4688H25.2733C25.1825 10.4644 25.0764 10.4622 24.9692 10.4622C23.5309 10.4622 22.1933 10.8932 21.0787 11.6336L21.105 11.6172C19.9336 11.1786 14.56 9.36849 11.2339 11.7244C9.60529 13.1135 8.58044 15.1665 8.58044 17.46C8.58044 17.903 8.61873 18.3372 8.69201 18.7594L8.68544 18.7146C9.05185 21.6655 9.64685 24.3211 10.4704 26.875L10.384 26.5644C10.9233 28.4413 11.5904 30.0655 12.4097 31.5957L12.3429 31.46C12.8165 32.5363 13.6358 33.3894 14.6573 33.8936L14.6858 33.9068C14.8695 33.9604 15.0806 33.9921 15.2994 33.9921C16.1109 33.9921 16.8218 33.5644 17.22 32.9213L17.2254 32.9115C18.3203 31.5946 19.3987 30.4155 19.8833 29.8949C20.4323 30.2 21.0831 30.3882 21.7765 30.41H21.7831L21.7842 30.4155C21.669 30.5526 21.5563 30.6919 21.4462 30.8333C20.9825 31.4218 20.8862 31.5432 19.3954 31.8505C18.9711 31.938 17.8445 32.1699 17.8281 32.9596C17.8281 32.964 17.8281 32.9683 17.8281 32.9738C17.8281 33.1346 17.8751 33.2844 17.9561 33.4102L17.9539 33.4069C18.2951 33.839 18.7753 34.1485 19.3254 34.2688L19.3419 34.2721C19.7783 34.4143 20.2814 34.4963 20.802 34.4963C22.0051 34.4963 23.1054 34.061 23.9564 33.3391L23.9498 33.3446C23.9236 33.8018 23.9094 34.3377 23.9094 34.8769C23.9094 36.7943 24.0964 38.669 24.4519 40.4824L24.4223 40.2997C24.8401 41.8015 26.1898 42.8886 27.7954 42.9029H27.7976C28.2012 42.8996 28.5917 42.8525 28.9679 42.7672L28.9319 42.7738C31.0308 42.5868 32.6845 40.909 32.8333 38.8155L32.8344 38.8024C33.04 37.6124 33.3834 34.8725 33.5704 33.1969C33.5792 33.1258 33.6076 33.0624 33.6492 33.0099L33.6481 33.011C33.6492 33.0099 33.7433 32.9465 34.2322 33.0525L34.2923 33.0624L34.639 33.093L34.6598 33.0941C34.7637 33.0985 34.8862 33.1018 35.0087 33.1018C36.1287 33.1018 37.1984 32.883 38.1751 32.4849L38.1194 32.5046C38.9998 32.0966 40.5868 31.0936 40.2992 30.2219Z" fill="white"/>
</svg>
