<svg width="50" height="50" viewBox="0 0 50 50" fill="none" xmlns="http://www.w3.org/2000/svg">
<rect width="50" height="50" rx="13" fill="#1C1C1C"/>
<path d="M25.5627 8C16.581 8 17.1418 11.9157 17.1418 11.9157L17.1517 15.9725H25.7229V17.1905H13.7474C13.7474 17.1905 8 16.5352 8 25.6458C8 34.7567 13.0165 34.4336 13.0165 34.4336H16.0103V30.2058C16.0103 30.2058 15.8489 25.1627 20.9467 25.1627H29.4478C29.4478 25.1627 34.2239 25.2402 34.2239 20.5222V12.7211C34.2239 12.7211 34.9493 8 25.5627 8ZM20.8366 10.7281C21.0391 10.7279 21.2397 10.7679 21.4269 10.8457C21.614 10.9236 21.7841 11.0377 21.9273 11.1817C22.0705 11.3257 22.1841 11.4967 22.2615 11.6848C22.339 11.873 22.3787 12.0746 22.3785 12.2782C22.3787 12.4819 22.339 12.6835 22.2615 12.8717C22.1841 13.0598 22.0705 13.2308 21.9273 13.3748C21.7841 13.5187 21.614 13.6329 21.4269 13.7107C21.2397 13.7886 21.0391 13.8285 20.8366 13.8284C20.6341 13.8285 20.4335 13.7886 20.2463 13.7107C20.0591 13.6329 19.8891 13.5187 19.7459 13.3748C19.6027 13.2308 19.4891 13.0598 19.4117 12.8717C19.3342 12.6835 19.2945 12.4819 19.2947 12.2782C19.2945 12.0746 19.3342 11.873 19.4117 11.6848C19.4891 11.4967 19.6027 11.3257 19.7459 11.1817C19.8891 11.0377 20.0591 10.9236 20.2463 10.8457C20.4335 10.7679 20.6341 10.7279 20.8366 10.7281Z" fill="url(#paint0_linear_1_175)"/>
<path d="M25.4374 43C34.4192 43 33.8584 39.0843 33.8584 39.0843L33.8484 35.0276H25.2771V33.8097H37.2526C37.2526 33.8097 43 34.465 43 25.354C43 16.2432 37.9835 16.5664 37.9835 16.5664H34.9897V20.794C34.9897 20.794 35.1511 25.8372 30.0533 25.8372H21.5522C21.5522 25.8372 16.7761 25.7596 16.7761 30.4778V38.279C16.7761 38.279 16.0509 43 25.4373 43H25.4374ZM30.1635 40.2722C29.961 40.2723 29.7604 40.2324 29.5733 40.1545C29.3861 40.0767 29.216 39.9625 29.0728 39.8185C28.9296 39.6746 28.816 39.5036 28.7386 39.3155C28.6612 39.1273 28.6214 38.9256 28.6216 38.722C28.6214 38.5184 28.6612 38.3167 28.7386 38.1286C28.816 37.9404 28.9296 37.7694 29.0728 37.6254C29.216 37.4814 29.3861 37.3672 29.5732 37.2894C29.7604 37.2116 29.961 37.1716 30.1635 37.1718C30.3661 37.1716 30.5667 37.2115 30.7538 37.2894C30.941 37.3672 31.111 37.4814 31.2543 37.6254C31.3975 37.7694 31.5111 37.9403 31.5885 38.1285C31.6659 38.3166 31.7057 38.5183 31.7055 38.7219C31.7057 38.9255 31.6659 39.1272 31.5885 39.3153C31.5111 39.5035 31.3975 39.6744 31.2543 39.8184C31.111 39.9624 30.941 40.0766 30.7538 40.1544C30.5667 40.2322 30.3661 40.2723 30.1635 40.2722Z" fill="url(#paint1_linear_1_175)"/>
<defs>
<linearGradient id="paint0_linear_1_175" x1="348.004" y1="326.251" x2="2110.54" y2="2061.99" gradientUnits="userSpaceOnUse">
<stop offset="0.59" stop-color="white"/>
<stop offset="1"/>
</linearGradient>
<linearGradient id="paint1_linear_1_175" x1="518.622" y1="560.572" x2="2410.92" y2="2339.97" gradientUnits="userSpaceOnUse">
<stop stop-color="white"/>
<stop offset="1" stop-color="white"/>
</linearGradient>
</defs>
</svg>
