<svg width="50" height="50" viewBox="0 0 50 50" fill="none" xmlns="http://www.w3.org/2000/svg">
<rect width="50" height="50" rx="13" fill="#1C1C1C"/>
<path fill-rule="evenodd" clip-rule="evenodd" d="M12.6666 18.8333C12.6666 18.189 13.189 17.6666 13.8333 17.6666H18.5C19.1443 17.6666 19.6666 18.189 19.6666 18.8333C19.6666 19.4776 19.1443 20 18.5 20H15V22.3333H18.5C19.1443 22.3333 19.6666 22.8556 19.6666 23.5V28.1666C19.6666 28.811 19.1443 29.3333 18.5 29.3333H13.8333C13.189 29.3333 12.6666 28.811 12.6666 28.1666C12.6666 27.5223 13.189 27 13.8333 27H17.3333V24.6666H13.8333C13.189 24.6666 12.6666 24.1443 12.6666 23.5V18.8333ZM22 18.8333C22 18.189 22.5223 17.6666 23.1666 17.6666H27.8333C28.4776 17.6666 29 18.189 29 18.8333V29.3333H30.1666C30.811 29.3333 31.3333 29.8557 31.3333 30.5C31.3333 31.1442 30.811 31.6666 30.1666 31.6666H27.8333C27.189 31.6666 26.6666 31.1442 26.6666 30.5V29.3333H23.1666C22.5223 29.3333 22 28.811 22 28.1666V18.8333ZM26.6666 27H24.3333V20H26.6666V27ZM32.5 17.6666C33.1442 17.6666 33.6666 18.189 33.6666 18.8333V27H37.1666C37.8109 27 38.3333 27.5223 38.3333 28.1666C38.3333 28.811 37.8109 29.3333 37.1666 29.3333H32.5C31.8557 29.3333 31.3333 28.811 31.3333 28.1666V18.8333C31.3333 18.189 31.8557 17.6666 32.5 17.6666Z" fill="white"/>
</svg>
